<?xml version="1.0" encoding="UTF-8" standalone="no"?>
<svg
   xmlns:dc="http://purl.org/dc/elements/1.1/"
   xmlns:cc="http://creativecommons.org/ns#"
   xmlns:rdf="http://www.w3.org/1999/02/22-rdf-syntax-ns#"
   xmlns:svg="http://www.w3.org/2000/svg"
   xmlns="http://www.w3.org/2000/svg"
   xmlns:sodipodi="http://sodipodi.sourceforge.net/DTD/sodipodi-0.dtd"
   xmlns:inkscape="http://www.inkscape.org/namespaces/inkscape"
   viewBox="0 0 512 512"
   version="1.1"
   id="svg6"
   sodipodi:docname="visagelivre.svg"
   inkscape:version="0.92.1 r15371">
  <metadata
     id="metadata12">
    <rdf:RDF>
      <cc:Work
         rdf:about="">
        <dc:format>image/svg+xml</dc:format>
        <dc:type
           rdf:resource="http://purl.org/dc/dcmitype/StillImage" />
      </cc:Work>
    </rdf:RDF>
  </metadata>
  <defs
     id="defs10" />
  <sodipodi:namedview
     pagecolor="#ffffff"
     bordercolor="#666666"
     borderopacity="1"
     objecttolerance="10"
     gridtolerance="10"
     guidetolerance="10"
     inkscape:pageopacity="0"
     inkscape:pageshadow="2"
     inkscape:window-width="640"
     inkscape:window-height="480"
     id="namedview8"
     showgrid="false"
     inkscape:zoom="0.4609375"
     inkscape:cx="256"
     inkscape:cy="256"
     inkscape:window-x="0"
     inkscape:window-y="29"
     inkscape:window-maximized="0"
     inkscape:current-layer="svg6" />
  <circle
     style="fill:#63AD86;"
     cx="256"
     cy="256"
     r="256"
     id="circle2" />
  <path
     style="fill:#ffffff;stroke-width:0.92764318"
     d="m 452.15515,177.95931 c -1.84503,40.66987 -29.88963,96.35775 -84.31829,167.06361 -56.18146,73.87737 -103.69122,110.81605 -142.62154,110.81605 -24.07776,0 -44.46544,-22.48036 -61.16306,-67.44107 -32.47268,-120.51713 -46.31049,-191.12972 -73.155809,-191.12972 -3.136565,0 -13.930045,6.62283 -32.472691,19.68198 L 39.050847,191.57813 c 47.602014,-42.25563 93.082243,-89.2685 121.588103,-91.880324 32.19593,-3.171503 51.93785,19.122304 59.41026,66.694844 26.47631,169.30231 38.19231,194.8609 86.34784,118.18514 17.25112,-27.61072 26.56857,-48.59862 27.86009,-63.05695 4.4281,-42.81529 -33.0262,-39.92363 -58.3955,-28.91665 20.29544,-67.25451 59.13352,-99.902348 116.422,-98.036759 42.25139,1.119356 62.27006,29.009919 59.87151,83.391879 z"
     id="path4"
     inkscape:connector-curvature="0" />
</svg>
